<svg id="svg" xmlns="http://www.w3.org/2000/svg" xmlns:xlink="http://www.w3.org/1999/xlink" width="400" height="400" viewBox="0, 0, 400,400"><g id="svgg"><path id="path0" d="M153.846 92.308 L 153.846 143.590 112.821 143.590 C 59.241 143.590,60.546 148.485,133.333 220.513 L 194.872 281.409 256.410 220.513 C 329.197 148.485,330.503 143.590,276.923 143.590 L 235.897 143.590 235.897 92.308 L 235.897 41.026 194.872 41.026 L 153.846 41.026 153.846 92.308 M225.641 102.564 L 225.641 153.846 263.980 153.846 L 302.320 153.846 248.596 207.570 L 194.872 261.294 141.148 207.570 L 87.424 153.846 125.763 153.846 L 164.103 153.846 164.103 102.564 C 164.103 52.422,164.786 51.282,194.872 51.282 C 224.957 51.282,225.641 52.422,225.641 102.564 M41.026 323.077 L 41.026 358.974 200.000 358.974 L 358.974 358.974 358.974 323.077 L 358.974 287.179 200.000 287.179 L 41.026 287.179 41.026 323.077 M348.718 323.077 L 348.718 348.718 200.000 348.718 L 51.282 348.718 51.282 323.077 L 51.282 297.436 200.000 297.436 L 348.718 297.436 348.718 323.077 " stroke="none" fill="#000000" fill-rule="evenodd"></path></g></svg>